<?xml version="1.0" encoding="UTF-8"?>
<svg width="103px" height="119px" viewBox="0 0 103 119" version="1.1" xmlns="http://www.w3.org/2000/svg" xmlns:xlink="http://www.w3.org/1999/xlink">
    <title>logo</title>
    <g id="Page-1" stroke="none" stroke-width="1" fill="none" fill-rule="evenodd">
        <g id="Desktop-Copy-13" transform="translate(-573.000000, 0.000000)">
            <rect fill="#000000" x="0" y="0" width="1920" height="3293"></rect>
            <g id="logo" transform="translate(573.000000, 0.000000)" fill-rule="nonzero">
                <g id="logo-copy-3" transform="translate(51.500000, 59.500000) scale(-1, 1) translate(-51.500000, -59.500000) translate(-0.000000, 0.000000)" fill="#D31930">
                    <rect id="Rectangle" x="2.84217094e-14" y="7.10542736e-15" width="103" height="119"></rect>
                </g>
                <path d="M23.2900391,77.7119141 L23.2900391,66.2172852 L27.4926758,66.2172852 L27.4926758,64.324707 L17,64.324707 L17,66.2172852 L21.2119141,66.2172852 L21.2119141,77.7119141 L23.2900391,77.7119141 Z M38.0954602,78.0366211 C41.4538587,78.0366211 43.5227063,76.0048828 43.5227063,73.1010742 L43.5227063,64.324707 L41.4445813,64.324707 L41.4445813,72.9155273 C41.4445813,74.7895508 40.2292493,76.0883789 38.0954602,76.0883789 C35.9709485,76.0883789 34.7556165,74.7895508 34.7556165,72.9155273 L34.7556165,64.324707 L32.6774915,64.324707 L32.6774915,73.1010742 C32.6774915,76.0048828 34.7370618,78.0366211 38.0954602,78.0366211 Z M55.155276,78.0366211 C58.6621119,78.0366211 60.9350611,75.8378906 60.9350611,72.4145508 L60.9350611,70.7446289 L55.4428736,70.7446289 L55.4428736,72.4887695 L58.8940455,72.4887695 L58.8940455,72.7763672 C58.8754908,74.7617188 57.3725611,76.0976562 55.183108,76.0976562 C52.6689478,76.0976562 51.0917994,74.1494141 51.0917994,70.9951172 C51.0917994,67.8964844 52.6596705,65.9389648 55.1367213,65.9389648 C56.964358,65.9389648 58.2353541,66.8203125 58.7548853,68.4345703 L60.8422877,68.4345703 C60.3876978,65.7255859 58.17969,64 55.1367213,64 C51.3886744,64 48.9672877,66.7460938 48.9672877,71.0136719 C48.9672877,75.3369141 51.3608424,78.0366211 55.155276,78.0366211 Z M68.4763221,77.7119141 L68.4763221,64.324707 L66.3981971,64.324707 L66.3981971,77.7119141 L68.4763221,77.7119141 Z M76.4536183,77.7119141 L76.4536183,68.2026367 L76.6020558,68.2026367 L83.4765675,77.7119141 L85.350591,77.7119141 L85.350591,64.324707 L83.32813,64.324707 L83.32813,73.8339844 L83.1796925,73.8339844 L76.3051808,64.324707 L74.4311574,64.324707 L74.4311574,77.7119141 L76.4536183,77.7119141 Z M19.1337891,100.869629 C19.9223633,100.869629 20.4975586,100.266602 20.4975586,99.4873047 C20.4975586,98.7080078 19.9223633,98.1049805 19.1337891,98.1049805 C18.3544922,98.1049805 17.7700195,98.7080078 17.7700195,99.4873047 C17.7700195,100.266602 18.3544922,100.869629 19.1337891,100.869629 Z M27.510011,100.711914 L28.7438977,97.1586914 L33.8464368,97.1586914 L35.0710462,100.711914 L37.279054,100.711914 L32.4455579,87.324707 L30.2097181,87.324707 L25.376222,100.711914 L27.510011,100.711914 Z M33.3176282,95.4145508 L29.2727063,95.4145508 L31.2209485,89.7553711 L31.3786634,89.7553711 L33.3176282,95.4145508 Z M44.2915064,100.711914 L44.2915064,95.609375 L47.2231471,95.609375 L49.9506861,100.711914 L52.3535181,100.711914 L49.3476588,95.2661133 C50.9804713,94.7094727 51.945315,93.2436523 51.945315,91.4438477 C51.945315,88.9296875 50.2104517,87.324707 47.5107447,87.324707 L42.2133814,87.324707 L42.2133814,100.711914 L44.2915064,100.711914 Z M47.2788111,93.8374023 L44.2915064,93.8374023 L44.2915064,89.1523438 L47.2231471,89.1523438 C48.8281275,89.1523438 49.811526,90.0336914 49.811526,91.4902344 C49.811526,92.9838867 48.8837916,93.8374023 47.2788111,93.8374023 Z M62.9841346,100.711914 L62.9841346,89.2172852 L67.1867714,89.2172852 L67.1867714,87.324707 L56.6940956,87.324707 L56.6940956,89.2172852 L60.9060096,89.2172852 L60.9060096,100.711914 L62.9841346,100.711914 Z" id="TUGIN.ART" fill="#FFFFFF"></path>
            </g>
        </g>
    </g>
</svg>