<?xml version="1.0" encoding="UTF-8"?>
<svg width="1920px" height="1577px" viewBox="0 0 1920 1577" version="1.1" xmlns="http://www.w3.org/2000/svg" xmlns:xlink="http://www.w3.org/1999/xlink">
    <!-- Generator: Sketch 64 (93537) - https://sketch.com -->
    <title>Path 18_looper Copy</title>
    <desc>Created with Sketch.</desc>
    <defs>
        <linearGradient x1="0.25781251%" y1="49.7500002%" x2="101.257813%" y2="49.7500002%" id="linearGradient-1">
            <stop stop-color="#3023AE" offset="0%"></stop>
            <stop stop-color="#53A0FD" offset="47.5247532%"></stop>
            <stop stop-color="#B4EC51" offset="100%"></stop>
        </linearGradient>
        <linearGradient x1="0.25781251%" y1="49.7500002%" x2="101.257813%" y2="49.7500002%" id="linearGradient-2">
            <stop stop-color="#3023AE" offset="0%"></stop>
            <stop stop-color="#53A0FD" offset="47.5247532%"></stop>
            <stop stop-color="#B4EC51" offset="100%"></stop>
        </linearGradient>
        <linearGradient x1="0.25781251%" y1="49.7500002%" x2="101.257813%" y2="49.7500002%" id="linearGradient-3">
            <stop stop-color="#3023AE" offset="0%"></stop>
            <stop stop-color="#53A0FD" offset="47.5247532%"></stop>
            <stop stop-color="#B4EC51" offset="100%"></stop>
        </linearGradient>
        <linearGradient x1="0.25781251%" y1="49.7500002%" x2="101.257813%" y2="49.7500002%" id="linearGradient-4">
            <stop stop-color="#3023AE" offset="0%"></stop>
            <stop stop-color="#53A0FD" offset="47.5247532%"></stop>
            <stop stop-color="#B4EC51" offset="100%"></stop>
        </linearGradient>
        <linearGradient x1="0.25781251%" y1="49.7500002%" x2="101.257813%" y2="49.7500002%" id="linearGradient-5">
            <stop stop-color="#3023AE" offset="0%"></stop>
            <stop stop-color="#53A0FD" offset="47.5247532%"></stop>
            <stop stop-color="#B4EC51" offset="100%"></stop>
        </linearGradient>
        <linearGradient x1="0.25781251%" y1="49.7500002%" x2="101.257813%" y2="49.7500002%" id="linearGradient-6">
            <stop stop-color="#3023AE" offset="0%"></stop>
            <stop stop-color="#53A0FD" offset="47.5247532%"></stop>
            <stop stop-color="#B4EC51" offset="100%"></stop>
        </linearGradient>
        <linearGradient x1="0.25781251%" y1="49.7500002%" x2="101.257813%" y2="49.7500002%" id="linearGradient-7">
            <stop stop-color="#3023AE" offset="0%"></stop>
            <stop stop-color="#53A0FD" offset="47.5247532%"></stop>
            <stop stop-color="#B4EC51" offset="100%"></stop>
        </linearGradient>
        <linearGradient x1="0.25781251%" y1="49.7500002%" x2="101.257813%" y2="49.7500002%" id="linearGradient-8">
            <stop stop-color="#3023AE" offset="0%"></stop>
            <stop stop-color="#53A0FD" offset="47.5247532%"></stop>
            <stop stop-color="#B4EC51" offset="100%"></stop>
        </linearGradient>
        <linearGradient x1="0.25781251%" y1="49.7500002%" x2="101.257813%" y2="49.7500002%" id="linearGradient-9">
            <stop stop-color="#3023AE" offset="0%"></stop>
            <stop stop-color="#53A0FD" offset="47.5247532%"></stop>
            <stop stop-color="#B4EC51" offset="100%"></stop>
        </linearGradient>
        <linearGradient x1="0.25781251%" y1="49.7500002%" x2="101.257813%" y2="49.7500002%" id="linearGradient-10">
            <stop stop-color="#3023AE" offset="0%"></stop>
            <stop stop-color="#53A0FD" offset="47.5247532%"></stop>
            <stop stop-color="#B4EC51" offset="100%"></stop>
        </linearGradient>
        <linearGradient x1="0.25781251%" y1="49.7500002%" x2="101.257813%" y2="49.7500002%" id="linearGradient-11">
            <stop stop-color="#3023AE" offset="0%"></stop>
            <stop stop-color="#53A0FD" offset="47.5247532%"></stop>
            <stop stop-color="#B4EC51" offset="100%"></stop>
        </linearGradient>
        <linearGradient x1="0.25781251%" y1="49.7500002%" x2="101.257813%" y2="49.7500002%" id="linearGradient-12">
            <stop stop-color="#3023AE" offset="0%"></stop>
            <stop stop-color="#53A0FD" offset="47.5247532%"></stop>
            <stop stop-color="#B4EC51" offset="100%"></stop>
        </linearGradient>
        <linearGradient x1="0.25781251%" y1="49.7500002%" x2="101.257813%" y2="49.7500002%" id="linearGradient-13">
            <stop stop-color="#3023AE" offset="0%"></stop>
            <stop stop-color="#53A0FD" offset="47.5247532%"></stop>
            <stop stop-color="#B4EC51" offset="100%"></stop>
        </linearGradient>
        <linearGradient x1="0.25781251%" y1="49.7500002%" x2="101.257813%" y2="49.7500002%" id="linearGradient-14">
            <stop stop-color="#3023AE" offset="0%"></stop>
            <stop stop-color="#53A0FD" offset="47.5247532%"></stop>
            <stop stop-color="#B4EC51" offset="100%"></stop>
        </linearGradient>
        <linearGradient x1="0.25781251%" y1="49.7500002%" x2="101.257813%" y2="49.7500002%" id="linearGradient-15">
            <stop stop-color="#3023AE" offset="0%"></stop>
            <stop stop-color="#53A0FD" offset="47.5247532%"></stop>
            <stop stop-color="#B4EC51" offset="100%"></stop>
        </linearGradient>
        <linearGradient x1="0.25781251%" y1="49.7500002%" x2="101.257813%" y2="49.7500002%" id="linearGradient-16">
            <stop stop-color="#3023AE" offset="0%"></stop>
            <stop stop-color="#53A0FD" offset="47.5247532%"></stop>
            <stop stop-color="#B4EC51" offset="100%"></stop>
        </linearGradient>
        <linearGradient x1="0.25781251%" y1="49.7500002%" x2="101.257813%" y2="49.7500002%" id="linearGradient-17">
            <stop stop-color="#3023AE" offset="0%"></stop>
            <stop stop-color="#53A0FD" offset="47.5247532%"></stop>
            <stop stop-color="#B4EC51" offset="100%"></stop>
        </linearGradient>
        <linearGradient x1="0.25781251%" y1="49.7500002%" x2="101.257813%" y2="49.7500002%" id="linearGradient-18">
            <stop stop-color="#3023AE" offset="0%"></stop>
            <stop stop-color="#53A0FD" offset="47.5247532%"></stop>
            <stop stop-color="#B4EC51" offset="100%"></stop>
        </linearGradient>
        <linearGradient x1="0.25781251%" y1="49.7500002%" x2="101.257813%" y2="49.7500002%" id="linearGradient-19">
            <stop stop-color="#3023AE" offset="0%"></stop>
            <stop stop-color="#53A0FD" offset="47.5247532%"></stop>
            <stop stop-color="#B4EC51" offset="100%"></stop>
        </linearGradient>
        <linearGradient x1="0.25781251%" y1="49.7500002%" x2="101.257813%" y2="49.7500002%" id="linearGradient-20">
            <stop stop-color="#3023AE" offset="0%"></stop>
            <stop stop-color="#53A0FD" offset="47.5247532%"></stop>
            <stop stop-color="#B4EC51" offset="100%"></stop>
        </linearGradient>
        <linearGradient x1="0.25781251%" y1="49.7500002%" x2="101.257813%" y2="49.7500002%" id="linearGradient-21">
            <stop stop-color="#3023AE" offset="0%"></stop>
            <stop stop-color="#53A0FD" offset="47.5247532%"></stop>
            <stop stop-color="#B4EC51" offset="100%"></stop>
        </linearGradient>
        <linearGradient x1="0.25781251%" y1="49.7500002%" x2="101.257813%" y2="49.7500002%" id="linearGradient-22">
            <stop stop-color="#3023AE" offset="0%"></stop>
            <stop stop-color="#53A0FD" offset="47.5247532%"></stop>
            <stop stop-color="#B4EC51" offset="100%"></stop>
        </linearGradient>
        <linearGradient x1="0.25781251%" y1="49.7500002%" x2="101.257813%" y2="49.7500002%" id="linearGradient-23">
            <stop stop-color="#3023AE" offset="0%"></stop>
            <stop stop-color="#53A0FD" offset="47.5247532%"></stop>
            <stop stop-color="#B4EC51" offset="100%"></stop>
        </linearGradient>
        <linearGradient x1="0.25781251%" y1="49.7500002%" x2="101.257813%" y2="49.7500002%" id="linearGradient-24">
            <stop stop-color="#3023AE" offset="0%"></stop>
            <stop stop-color="#53A0FD" offset="47.5247532%"></stop>
            <stop stop-color="#B4EC51" offset="100%"></stop>
        </linearGradient>
        <linearGradient x1="0.25781251%" y1="49.7500002%" x2="101.257813%" y2="49.7500002%" id="linearGradient-25">
            <stop stop-color="#3023AE" offset="0%"></stop>
            <stop stop-color="#53A0FD" offset="47.5247532%"></stop>
            <stop stop-color="#B4EC51" offset="100%"></stop>
        </linearGradient>
        <linearGradient x1="0.25781251%" y1="49.7500002%" x2="101.257813%" y2="49.7500002%" id="linearGradient-26">
            <stop stop-color="#3023AE" offset="0%"></stop>
            <stop stop-color="#53A0FD" offset="47.5247532%"></stop>
            <stop stop-color="#B4EC51" offset="100%"></stop>
        </linearGradient>
        <linearGradient x1="0.25781251%" y1="49.7500002%" x2="101.257813%" y2="49.7500002%" id="linearGradient-27">
            <stop stop-color="#3023AE" offset="0%"></stop>
            <stop stop-color="#53A0FD" offset="47.5247532%"></stop>
            <stop stop-color="#B4EC51" offset="100%"></stop>
        </linearGradient>
        <linearGradient x1="0.25781251%" y1="49.7500002%" x2="101.257813%" y2="49.7500002%" id="linearGradient-28">
            <stop stop-color="#3023AE" offset="0%"></stop>
            <stop stop-color="#53A0FD" offset="47.5247532%"></stop>
            <stop stop-color="#B4EC51" offset="100%"></stop>
        </linearGradient>
        <linearGradient x1="0.25781251%" y1="49.7500002%" x2="101.257813%" y2="49.7500002%" id="linearGradient-29">
            <stop stop-color="#3023AE" offset="0%"></stop>
            <stop stop-color="#53A0FD" offset="47.5247532%"></stop>
            <stop stop-color="#B4EC51" offset="100%"></stop>
        </linearGradient>
        <linearGradient x1="0.25781251%" y1="49.7500002%" x2="101.257813%" y2="49.7500002%" id="linearGradient-30">
            <stop stop-color="#3023AE" offset="0%"></stop>
            <stop stop-color="#53A0FD" offset="47.5247532%"></stop>
            <stop stop-color="#B4EC51" offset="100%"></stop>
        </linearGradient>
        <linearGradient x1="0.25781251%" y1="49.7500002%" x2="101.257813%" y2="49.7500002%" id="linearGradient-31">
            <stop stop-color="#3023AE" offset="0%"></stop>
            <stop stop-color="#53A0FD" offset="47.5247532%"></stop>
            <stop stop-color="#B4EC51" offset="100%"></stop>
        </linearGradient>
        <linearGradient x1="0.25781251%" y1="49.7500002%" x2="101.257813%" y2="49.7500002%" id="linearGradient-32">
            <stop stop-color="#3023AE" offset="0%"></stop>
            <stop stop-color="#53A0FD" offset="47.5247532%"></stop>
            <stop stop-color="#B4EC51" offset="100%"></stop>
        </linearGradient>
        <linearGradient x1="0.25781251%" y1="49.7500002%" x2="101.257813%" y2="49.7500002%" id="linearGradient-33">
            <stop stop-color="#3023AE" offset="0%"></stop>
            <stop stop-color="#53A0FD" offset="47.5247532%"></stop>
            <stop stop-color="#B4EC51" offset="100%"></stop>
        </linearGradient>
        <linearGradient x1="0.25781251%" y1="49.7500002%" x2="101.257813%" y2="49.7500002%" id="linearGradient-34">
            <stop stop-color="#3023AE" offset="0%"></stop>
            <stop stop-color="#53A0FD" offset="47.5247532%"></stop>
            <stop stop-color="#B4EC51" offset="100%"></stop>
        </linearGradient>
        <linearGradient x1="0.25781251%" y1="49.7500002%" x2="101.257813%" y2="49.7500002%" id="linearGradient-35">
            <stop stop-color="#3023AE" offset="0%"></stop>
            <stop stop-color="#53A0FD" offset="47.5247532%"></stop>
            <stop stop-color="#B4EC51" offset="100%"></stop>
        </linearGradient>
        <linearGradient x1="0.25781251%" y1="49.7500002%" x2="101.257813%" y2="49.7500002%" id="linearGradient-36">
            <stop stop-color="#3023AE" offset="0%"></stop>
            <stop stop-color="#53A0FD" offset="47.5247532%"></stop>
            <stop stop-color="#B4EC51" offset="100%"></stop>
        </linearGradient>
        <linearGradient x1="0.25781251%" y1="49.7500002%" x2="101.257813%" y2="49.7500002%" id="linearGradient-37">
            <stop stop-color="#3023AE" offset="0%"></stop>
            <stop stop-color="#53A0FD" offset="47.5247532%"></stop>
            <stop stop-color="#B4EC51" offset="100%"></stop>
        </linearGradient>
        <linearGradient x1="0.25781251%" y1="49.7500002%" x2="101.257813%" y2="49.7500002%" id="linearGradient-38">
            <stop stop-color="#3023AE" offset="0%"></stop>
            <stop stop-color="#53A0FD" offset="47.5247532%"></stop>
            <stop stop-color="#B4EC51" offset="100%"></stop>
        </linearGradient>
        <linearGradient x1="0.25781251%" y1="49.7500002%" x2="101.257813%" y2="49.7500002%" id="linearGradient-39">
            <stop stop-color="#3023AE" offset="0%"></stop>
            <stop stop-color="#53A0FD" offset="47.5247532%"></stop>
            <stop stop-color="#B4EC51" offset="100%"></stop>
        </linearGradient>
        <linearGradient x1="0.25781251%" y1="49.7500002%" x2="101.257813%" y2="49.7500002%" id="linearGradient-40">
            <stop stop-color="#3023AE" offset="0%"></stop>
            <stop stop-color="#53A0FD" offset="47.5247532%"></stop>
            <stop stop-color="#B4EC51" offset="100%"></stop>
        </linearGradient>
        <linearGradient x1="0.25781251%" y1="49.7500002%" x2="101.257813%" y2="49.7500002%" id="linearGradient-41">
            <stop stop-color="#3023AE" offset="0%"></stop>
            <stop stop-color="#53A0FD" offset="47.5247532%"></stop>
            <stop stop-color="#B4EC51" offset="100%"></stop>
        </linearGradient>
        <linearGradient x1="0.25781251%" y1="49.7500002%" x2="101.257813%" y2="49.7500002%" id="linearGradient-42">
            <stop stop-color="#3023AE" offset="0%"></stop>
            <stop stop-color="#53A0FD" offset="47.5247532%"></stop>
            <stop stop-color="#B4EC51" offset="100%"></stop>
        </linearGradient>
        <linearGradient x1="0.25781251%" y1="49.7500002%" x2="101.257813%" y2="49.7500002%" id="linearGradient-43">
            <stop stop-color="#3023AE" offset="0%"></stop>
            <stop stop-color="#53A0FD" offset="47.5247532%"></stop>
            <stop stop-color="#B4EC51" offset="100%"></stop>
        </linearGradient>
        <linearGradient x1="0.25781251%" y1="49.7500002%" x2="101.257813%" y2="49.7500002%" id="linearGradient-44">
            <stop stop-color="#3023AE" offset="0%"></stop>
            <stop stop-color="#53A0FD" offset="47.5247532%"></stop>
            <stop stop-color="#B4EC51" offset="100%"></stop>
        </linearGradient>
        <linearGradient x1="0.25781251%" y1="49.7500002%" x2="101.257813%" y2="49.7500002%" id="linearGradient-45">
            <stop stop-color="#3023AE" offset="0%"></stop>
            <stop stop-color="#53A0FD" offset="47.5247532%"></stop>
            <stop stop-color="#B4EC51" offset="100%"></stop>
        </linearGradient>
        <linearGradient x1="0.25781251%" y1="49.7500002%" x2="101.257813%" y2="49.7500002%" id="linearGradient-46">
            <stop stop-color="#3023AE" offset="0%"></stop>
            <stop stop-color="#53A0FD" offset="47.5247532%"></stop>
            <stop stop-color="#B4EC51" offset="100%"></stop>
        </linearGradient>
        <linearGradient x1="0.25781251%" y1="49.7500002%" x2="101.257813%" y2="49.7500002%" id="linearGradient-47">
            <stop stop-color="#3023AE" offset="0%"></stop>
            <stop stop-color="#53A0FD" offset="47.5247532%"></stop>
            <stop stop-color="#B4EC51" offset="100%"></stop>
        </linearGradient>
        <linearGradient x1="0.25781251%" y1="49.7500002%" x2="101.257813%" y2="49.7500002%" id="linearGradient-48">
            <stop stop-color="#3023AE" offset="0%"></stop>
            <stop stop-color="#53A0FD" offset="47.5247532%"></stop>
            <stop stop-color="#B4EC51" offset="100%"></stop>
        </linearGradient>
        <linearGradient x1="0.25781251%" y1="49.7500002%" x2="101.257813%" y2="49.7500002%" id="linearGradient-49">
            <stop stop-color="#3023AE" offset="0%"></stop>
            <stop stop-color="#53A0FD" offset="47.5247532%"></stop>
            <stop stop-color="#B4EC51" offset="100%"></stop>
        </linearGradient>
        <linearGradient x1="0.25781251%" y1="49.7500002%" x2="101.257813%" y2="49.7500002%" id="linearGradient-50">
            <stop stop-color="#3023AE" offset="0%"></stop>
            <stop stop-color="#53A0FD" offset="47.5247532%"></stop>
            <stop stop-color="#B4EC51" offset="100%"></stop>
        </linearGradient>
    </defs>
    <g id="Page-1" stroke="none" stroke-width="1" fill="none" fill-rule="evenodd">
        <g id="Path-18_looper-Copy" transform="translate(12.000000, -361.000000)" stroke-width="23">
            <path d="M2674.88512,1897.46682 C1716.58823,1348.86192 1498.4421,934.926444 2020.44673,655.66038 C2803.45367,236.761284 2568.19016,313.452909 3263.42036,820.963829 C3958.65056,1328.47475 4056.91232,1787.30839 3520.01156,1922.22849 C3162.07772,2012.17523 2880.36891,2003.92134 2674.88512,1897.46682 Z" id="Path-18_50" stroke="url(#linearGradient-1)" transform="translate(2803.831871, 1184.509220) rotate(26.073374) translate(-2803.831871, -1184.509220) "></path>
            <path d="M2653.12853,1895.62924 C1696.64061,1348.05359 1478.90627,934.894711 1999.92551,656.152586 C2781.45438,238.039399 2546.63498,314.587141 3240.5528,821.145905 C3934.47063,1327.70467 4032.5469,1785.67748 3496.65964,1920.34445 C3139.40147,2010.12244 2858.22443,2001.88403 2653.12853,1895.62924 Z" id="Path-18_49" stroke="url(#linearGradient-2)" opacity="0.98" transform="translate(2781.831871, 1184.009237) rotate(25.139045) translate(-2781.831871, -1184.009237) "></path>
            <path d="M2631.37194,1893.79165 C1676.69298,1347.24526 1459.37043,934.862978 1979.4043,656.644792 C2759.4551,239.317514 2525.0798,315.721373 3217.68525,821.32798 C3910.29069,1326.93459 4008.18148,1784.04657 3473.30772,1918.46042 C3116.72521,2008.06965 2836.07995,1999.84673 2631.37194,1893.79165 Z" id="Path-18_48" stroke="url(#linearGradient-3)" opacity="0.96" transform="translate(2759.831871, 1183.509255) rotate(24.213968) translate(-2759.831871, -1183.509255) "></path>
            <path d="M2609.61535,1891.95407 C1656.74535,1346.43694 1439.83459,934.831245 1958.88308,657.136998 C2737.45581,240.595629 2503.52461,316.855604 3194.81769,821.510056 C3886.11076,1326.16451 3983.81606,1782.41566 3449.9558,1916.57638 C3094.04896,2006.01686 2813.93548,1997.80942 2609.61535,1891.95407 Z" id="Path-18_47" stroke="url(#linearGradient-4)" opacity="0.94" transform="translate(2737.831871, 1183.009272) rotate(23.298727) translate(-2737.831871, -1183.009272) "></path>
            <path d="M2587.85876,1890.11649 C1636.79772,1345.62861 1420.29875,934.799512 1938.36186,657.629205 C2715.45652,241.873744 2481.96943,317.989836 3171.95013,821.692131 C3861.93083,1325.39443 3959.45064,1780.78474 3426.60388,1914.69234 C3071.37271,2003.96407 2791.791,1995.77212 2587.85876,1890.11649 Z" id="Path-18_46" stroke="url(#linearGradient-5)" opacity="0.92" transform="translate(2715.831871, 1182.509290) rotate(22.393900) translate(-2715.831871, -1182.509290) "></path>
            <path d="M2566.10217,1888.27891 C1616.85009,1344.82028 1400.76291,934.767779 1917.84064,658.121411 C2693.45724,243.151859 2460.41425,319.124067 3149.08257,821.874207 C3837.7509,1324.62435 3935.08523,1779.15383 3403.25196,1912.8083 C3048.69645,2001.91128 2769.64652,1993.73481 2566.10217,1888.27891 Z" id="Path-18_45" stroke="url(#linearGradient-6)" opacity="0.9" transform="translate(2693.831871, 1182.009308) rotate(21.500058) translate(-2693.831871, -1182.009308) "></path>
            <path d="M2544.34558,1886.44132 C1596.90246,1344.01195 1381.22708,934.736046 1897.31943,658.613617 C2671.45795,244.429974 2438.85907,320.258299 3126.21502,822.056283 C3813.57097,1323.85427 3910.71981,1777.52292 3379.90004,1910.92426 C3026.0202,1999.85849 2747.50204,1991.69751 2544.34558,1886.44132 Z" id="Path-18_44" stroke="url(#linearGradient-7)" opacity="0.88" transform="translate(2671.831871, 1181.509326) rotate(20.617767) translate(-2671.831871, -1181.509326) "></path>
            <path d="M2522.58899,1884.60374 C1576.95483,1343.20362 1361.69124,934.704313 1876.79821,659.105824 C2649.45867,245.708089 2417.30388,321.39253 3103.34746,822.238359 C3789.39104,1323.08419 3886.35439,1775.89201 3356.54812,1909.04022 C3003.34394,1997.8057 2725.35757,1989.6602 2522.58899,1884.60374 Z" id="Path-18_43" stroke="url(#linearGradient-8)" opacity="0.86" transform="translate(2649.831871, 1181.009344) rotate(19.747583) translate(-2649.831871, -1181.009344) "></path>
            <path d="M2500.8324,1882.76616 C1557.0072,1342.39529 1342.1554,934.672581 1856.27699,659.59803 C2627.45938,246.986204 2395.7487,322.526762 3080.4799,822.420435 C3765.21111,1322.31411 3861.98897,1774.2611 3333.1962,1907.15618 C2980.66769,1995.75291 2703.21309,1987.6229 2500.8324,1882.76616 Z" id="Path-18_42" stroke="url(#linearGradient-9)" opacity="0.84" transform="translate(2627.831871, 1180.509361) rotate(18.890057) translate(-2627.831871, -1180.509361) "></path>
            <path d="M2479.07581,1880.92858 C1537.05957,1341.58696 1322.61956,934.640848 1835.75577,660.090236 C2605.46009,248.264318 2374.19352,323.660993 3057.61235,822.60251 C3741.03117,1321.54403 3837.62355,1772.63019 3309.84428,1905.27215 C2957.99143,1993.70012 2681.06861,1985.58559 2479.07581,1880.92858 Z" id="Path-18_41" stroke="url(#linearGradient-10)" opacity="0.82" transform="translate(2605.831871, 1180.009380) rotate(18.045729) translate(-2605.831871, -1180.009380) "></path>
            <path d="M2457.31922,1879.09099 C1517.11195,1340.77863 1303.08372,934.609115 1815.23456,660.582443 C2583.46081,249.542433 2352.63833,324.795225 3034.74479,822.784586 C3716.85124,1320.77395 3813.25813,1770.99928 3286.49236,1903.38811 C2935.31518,1991.64733 2658.92413,1983.54829 2457.31922,1879.09099 Z" id="Path-18_40" stroke="url(#linearGradient-11)" opacity="0.8" transform="translate(2583.831871, 1179.509398) rotate(17.215133) translate(-2583.831871, -1179.509398) "></path>
            <path d="M2435.56264,1877.25341 C1497.16432,1339.9703 1283.54789,934.577383 1794.71334,661.074649 C2561.46152,250.820548 2331.08315,325.929456 3011.87723,822.966662 C3692.67131,1320.00387 3788.89272,1769.36837 3263.14044,1901.50407 C2912.63892,1989.59454 2636.77966,1981.51099 2435.56264,1877.25341 Z" id="Path-18_39" stroke="url(#linearGradient-12)" opacity="0.78" transform="translate(2561.831871, 1179.009416) rotate(16.398794) translate(-2561.831871, -1179.009416) "></path>
            <path d="M2413.80605,1875.41583 C1477.21669,1339.16198 1264.01205,934.54565 1774.19212,661.566855 C2539.46224,252.098663 2309.52797,327.063688 2989.00967,823.148738 C3668.49138,1319.23379 3764.5273,1767.73746 3239.78852,1899.62003 C2889.96267,1987.54175 2614.63518,1979.47368 2413.80605,1875.41583 Z" id="Path-18_38" stroke="url(#linearGradient-13)" opacity="0.76" transform="translate(2539.831871, 1178.509434) rotate(15.597227) translate(-2539.831871, -1178.509434) "></path>
            <path d="M2392.04946,1873.57825 C1457.26906,1338.35365 1244.47621,934.513918 1753.67091,662.059062 C2517.46295,253.376778 2287.97278,328.197919 2966.14212,823.330814 C3644.31145,1318.46371 3740.16188,1766.10655 3216.4366,1897.736 C2867.28641,1985.48896 2592.4907,1977.43638 2392.04946,1873.57825 Z" id="Path-18_37" stroke="url(#linearGradient-14)" opacity="0.74" transform="translate(2517.831871, 1178.009452) rotate(14.810938) translate(-2517.831871, -1178.009452) "></path>
            <path d="M2370.29287,1871.74067 C1437.32143,1337.54532 1224.94037,934.482186 1733.14969,662.551268 C2495.46366,254.654893 2266.4176,329.332151 2943.27456,823.51289 C3620.13152,1317.69363 3715.79646,1764.47564 3193.08468,1895.85196 C2844.61016,1983.43617 2570.34622,1975.39907 2370.29287,1871.74067 Z" id="Path-18_36" stroke="url(#linearGradient-15)" opacity="0.72" transform="translate(2495.831871, 1177.509471) rotate(14.040425) translate(-2495.831871, -1177.509471) "></path>
            <path d="M2348.53628,1869.90309 C1417.3738,1336.73699 1205.40453,934.450453 1712.62847,663.043475 C2473.46438,255.933007 2244.86242,330.466382 2920.407,823.694966 C3595.95159,1316.92355 3691.43104,1762.84473 3169.73276,1893.96792 C2821.93391,1981.38338 2548.20174,1973.36177 2348.53628,1869.90309 Z" id="Path-18_35" stroke="url(#linearGradient-16)" opacity="0.7" transform="translate(2473.831871, 1177.009489) rotate(13.286174) translate(-2473.831871, -1177.009489) "></path>
            <path d="M2326.77969,1868.06551 C1397.42617,1335.92866 1185.86869,934.418721 1692.10725,663.535681 C2451.46509,257.211122 2223.30723,331.600614 2897.53944,823.877043 C3571.77165,1316.15347 3667.06562,1761.21382 3146.38084,1892.08388 C2799.25765,1979.33059 2526.05727,1971.32447 2326.77969,1868.06551 Z" id="Path-18_34" stroke="url(#linearGradient-17)" opacity="0.68" transform="translate(2451.831871, 1176.509508) rotate(12.548661) translate(-2451.831871, -1176.509508) "></path>
            <path d="M2305.0231,1866.22792 C1377.47854,1335.12033 1166.33286,934.386989 1671.58604,664.027888 C2429.46581,258.489237 2201.75205,332.734845 2874.67189,824.059119 C3547.59172,1315.38339 3642.7002,1759.58291 3123.02892,1890.19985 C2776.5814,1977.2778 2503.91279,1969.28716 2305.0231,1866.22792 Z" id="Path-18_33" stroke="url(#linearGradient-18)" opacity="0.66" transform="translate(2429.831871, 1176.009526) rotate(11.828352) translate(-2429.831871, -1176.009526) "></path>
            <path d="M2283.26651,1864.39034 C1357.53092,1334.31201 1146.79702,934.355256 1651.06482,664.520095 C2407.46652,259.767352 2180.19687,333.869077 2851.80433,824.241195 C3523.41179,1314.61331 3618.33479,1757.952 3099.677,1888.31581 C2753.90514,1975.22502 2481.76831,1967.24986 2283.26651,1864.39034 Z" id="Path-18_32" stroke="url(#linearGradient-19)" opacity="0.64" transform="translate(2407.831871, 1175.509545) rotate(11.125702) translate(-2407.831871, -1175.509545) "></path>
            <path d="M2261.50992,1862.55276 C1337.58329,1333.50368 1127.26118,934.323524 1630.5436,665.012301 C2385.46723,261.045466 2158.64168,335.003308 2828.93677,824.423271 C3499.23186,1313.84323 3593.96937,1756.32109 3076.32508,1886.43177 C2731.22889,1973.17223 2459.62383,1965.21256 2261.50992,1862.55276 Z" id="Path-18_31" stroke="url(#linearGradient-20)" opacity="0.62" transform="translate(2385.831871, 1175.009564) rotate(10.441154) translate(-2385.831871, -1175.009564) "></path>
            <path d="M2239.75333,1860.71518 C1317.63566,1332.69535 1107.72534,934.291792 1610.02238,665.504508 C2363.46795,262.323581 2137.0865,336.13754 2806.06921,824.605347 C3475.05193,1313.07315 3569.60395,1754.69018 3052.97316,1884.54774 C2708.55263,1971.11944 2437.47936,1963.17526 2239.75333,1860.71518 Z" id="Path-18_30" stroke="url(#linearGradient-21)" opacity="0.6" transform="translate(2363.831871, 1174.509582) rotate(9.775143) translate(-2363.831871, -1174.509582) "></path>
            <path d="M2217.99674,1858.8776 C1297.68803,1331.88702 1088.1895,934.26006 1589.50117,665.996714 C2341.46866,263.601696 2115.53132,337.271771 2783.20166,824.787424 C3450.872,1312.30308 3545.23853,1753.05927 3029.62124,1882.6637 C2685.87638,1969.06665 2415.33488,1961.13795 2217.99674,1858.8776 Z" id="Path-18_29" stroke="url(#linearGradient-22)" opacity="0.58" transform="translate(2341.831871, 1174.009601) rotate(9.128087) translate(-2341.831871, -1174.009601) "></path>
            <path d="M2196.24015,1857.04002 C1277.7404,1331.0787 1068.65367,934.228328 1568.97995,666.488921 C2319.46937,264.879811 2093.97613,338.406003 2760.3341,824.9695 C3426.69207,1311.533 3520.87311,1751.42836 3006.26932,1880.77966 C2663.20012,1967.01386 2393.1904,1959.10065 2196.24015,1857.04002 Z" id="Path-18_28" stroke="url(#linearGradient-23)" opacity="0.56" transform="translate(2319.831871, 1173.509620) rotate(8.500395) translate(-2319.831871, -1173.509620) "></path>
            <path d="M2174.48356,1855.20244 C1257.79277,1330.27037 1049.11783,934.196596 1548.45873,666.981128 C2297.47009,266.157925 2072.42095,339.540234 2737.46654,825.151577 C3402.51213,1310.76292 3496.50769,1749.79745 2982.9174,1878.89563 C2640.52387,1964.96108 2371.04592,1957.06335 2174.48356,1855.20244 Z" id="Path-18_27" stroke="url(#linearGradient-24)" opacity="0.54" transform="translate(2297.831871, 1173.009639) rotate(7.892465) translate(-2297.831871, -1173.009639) "></path>
            <path d="M2152.72697,1853.36486 C1237.84514,1329.46204 1029.58199,934.164864 1527.93752,667.473335 C2275.4708,267.43604 2050.86577,340.674466 2714.59899,825.333653 C3378.3322,1309.99284 3472.14228,1748.16654 2959.56548,1877.01159 C2617.84761,1962.90829 2348.90145,1955.02605 2152.72697,1853.36486 Z" id="Path-18_26" stroke="url(#linearGradient-25)" opacity="0.52" transform="translate(2275.831871, 1172.509658) rotate(7.304680) translate(-2275.831871, -1172.509658) "></path>
            <path d="M2130.97038,1851.52728 C1217.89751,1328.65371 1010.04615,934.133132 1507.4163,667.965541 C2253.47152,268.714155 2029.31058,341.808697 2691.73143,825.515729 C3354.15227,1309.22276 3447.77686,1746.53564 2936.21356,1875.12756 C2595.17136,1960.8555 2326.75697,1952.98874 2130.97038,1851.52728 Z" id="Path-18_25" stroke="url(#linearGradient-26)" opacity="0.5" transform="translate(2253.831871, 1172.009677) rotate(6.737411) translate(-2253.831871, -1172.009677) "></path>
            <path d="M2109.21379,1849.6897 C1197.94988,1327.84539 990.510314,934.101401 1486.89508,668.457748 C2231.47223,269.992269 2007.7554,342.942928 2668.86387,825.697806 C3329.97234,1308.45268 3423.41144,1744.90473 2912.86164,1873.24352 C2572.4951,1958.80271 2304.61249,1950.95144 2109.21379,1849.6897 Z" id="Path-18_24" stroke="url(#linearGradient-27)" opacity="0.48" transform="translate(2231.831871, 1171.509697) rotate(6.191016) translate(-2231.831871, -1171.509697) "></path>
            <path d="M2087.4572,1847.85212 C1178.00226,1327.03706 970.974476,934.069669 1466.37386,668.949955 C2209.47294,271.270384 1986.20022,344.07716 2645.99631,825.879883 C3305.79241,1307.68261 3399.04602,1743.27382 2889.50972,1871.35948 C2549.81885,1956.74993 2282.46801,1948.91414 2087.4572,1847.85212 Z" id="Path-18_23" stroke="url(#linearGradient-28)" opacity="0.46" transform="translate(2209.831871, 1171.009716) rotate(5.665842) translate(-2209.831871, -1171.009716) "></path>
            <path d="M2065.70062,1846.01454 C1158.05463,1326.22873 951.438638,934.037937 1445.85265,669.442162 C2187.47366,272.548498 1964.64504,345.211391 2623.12876,826.061959 C3281.61248,1306.91253 3374.6806,1741.64291 2866.1578,1869.47545 C2527.1426,1954.69714 2260.32353,1946.87684 2065.70062,1846.01454 Z" id="Path-18_22" stroke="url(#linearGradient-29)" opacity="0.44" transform="translate(2187.831871, 1170.509735) rotate(5.162219) translate(-2187.831871, -1170.509735) "></path>
            <path d="M2043.94403,1844.17696 C1138.107,1325.4204 931.9028,934.006206 1425.33143,669.934369 C2165.47437,273.826613 1943.08985,346.345623 2600.2612,826.244036 C3257.43255,1306.14245 3350.31518,1740.012 2842.80588,1867.59141 C2504.46634,1952.64435 2238.17906,1944.83954 2043.94403,1844.17696 Z" id="Path-18_21" stroke="url(#linearGradient-30)" opacity="0.42" transform="translate(2165.831871, 1170.009755) rotate(4.680465) translate(-2165.831871, -1170.009755) "></path>
            <path d="M2022.18744,1842.33939 C1118.15937,1324.61208 912.366961,933.974474 1404.81021,670.426575 C2143.47509,275.104728 1921.53467,347.479854 2577.39364,826.426113 C3233.25261,1305.37237 3325.94976,1738.3811 2819.45396,1865.70738 C2481.79009,1950.59157 2216.03458,1942.80224 2022.18744,1842.33939 Z" id="Path-18_20" stroke="url(#linearGradient-31)" opacity="0.4" transform="translate(2143.831871, 1169.509774) rotate(4.220885) translate(-2143.831871, -1169.509774) "></path>
            <path d="M2000.43085,1840.50181 C1098.21174,1323.80375 892.831123,933.942743 1384.28899,670.918782 C2121.4758,276.382842 1899.97949,348.614085 2554.52608,826.608189 C3209.07268,1304.60229 3301.58435,1736.75019 2796.10204,1863.82334 C2459.11383,1948.53878 2193.8901,1940.76493 2000.43085,1840.50181 Z" id="Path-18_19" stroke="url(#linearGradient-32)" opacity="0.38" transform="translate(2121.831871, 1169.009794) rotate(3.783769) translate(-2121.831871, -1169.009794) "></path>
            <path d="M1978.67426,1838.66423 C1078.26411,1322.99542 873.295285,933.911011 1363.76778,671.410989 C2099.47651,277.660957 1878.4243,349.748317 2531.65853,826.790266 C3184.89275,1303.83222 3277.21893,1735.11928 2772.75012,1861.93931 C2436.43758,1946.48599 2171.74562,1938.72763 1978.67426,1838.66423 Z" id="Path-18_18" stroke="url(#linearGradient-33)" opacity="0.36" transform="translate(2099.831871, 1168.509814) rotate(3.369394) translate(-2099.831871, -1168.509814) "></path>
            <path d="M1956.91767,1836.82665 C1058.31648,1322.1871 853.759447,933.87928 1343.24656,671.903196 C2077.47723,278.939071 1856.86912,350.882548 2508.79097,826.972343 C3160.71282,1303.06214 3252.85351,1733.48837 2749.3982,1860.05527 C2413.76132,1944.43321 2149.60115,1936.69033 1956.91767,1836.82665 Z" id="Path-18_17" stroke="url(#linearGradient-34)" opacity="0.34" transform="translate(2077.831871, 1168.009834) rotate(2.978020) translate(-2077.831871, -1168.009834) "></path>
            <path d="M1935.16108,1834.98907 C1038.36885,1321.37877 834.223609,933.847548 1322.72534,672.395403 C2055.47794,280.217186 1835.31394,352.01678 2485.92341,827.15442 C3136.53289,1302.29206 3228.48809,1731.85746 2726.04628,1858.17124 C2391.08507,1942.38042 2127.45667,1934.65303 1935.16108,1834.98907 Z" id="Path-18_16" stroke="url(#linearGradient-35)" opacity="0.32" transform="translate(2055.831871, 1167.509853) rotate(2.609895) translate(-2055.831871, -1167.509853) "></path>
            <path d="M1913.40449,1833.15149 C1018.42123,1320.57044 814.687771,933.815817 1302.20412,672.88761 C2033.47866,281.4953 1813.75875,353.151011 2463.05585,827.336497 C3112.35296,1301.52198 3204.12267,1730.22656 2702.69436,1856.2872 C2368.40881,1940.32764 2105.31219,1932.61573 1913.40449,1833.15149 Z" id="Path-18_15" stroke="url(#linearGradient-36)" opacity="0.3" transform="translate(2033.831871, 1167.009873) rotate(2.265253) translate(-2033.831871, -1167.009873) "></path>
            <path d="M1891.6479,1831.31391 C998.473597,1319.76212 795.151933,933.784086 1281.68291,673.379817 C2011.47937,282.773415 1792.20357,354.285242 2440.1883,827.518574 C3088.17303,1300.75191 3179.75725,1728.59565 2679.34244,1854.40317 C2345.73256,1938.27485 2083.16771,1930.57843 1891.6479,1831.31391 Z" id="Path-18_14" stroke="url(#linearGradient-37)" opacity="0.28" transform="translate(2011.831871, 1166.509893) rotate(1.944309) translate(-2011.831871, -1166.509893) "></path>
            <path d="M1869.89131,1829.47634 C978.525968,1318.95379 775.616095,933.752355 1261.16169,673.872024 C1989.48008,284.051529 1770.64839,355.419474 2417.32074,827.700651 C3063.99309,1299.98183 3155.39183,1726.96474 2655.99052,1852.51914 C2323.0563,1936.22206 2061.02324,1928.54113 1869.89131,1829.47634 Z" id="Path-18_13" stroke="url(#linearGradient-38)" opacity="0.26" transform="translate(1989.831871, 1166.009914) rotate(1.647267) translate(-1989.831871, -1166.009914) "></path>
            <path d="M1848.13472,1827.63876 C958.578339,1318.14547 756.080257,933.720623 1240.64047,674.364232 C1967.4808,285.329644 1749.0932,356.553705 2394.45318,827.882728 C3039.81316,1299.21175 3131.02642,1725.33384 2632.6386,1850.6351 C2300.38005,1934.16928 2038.87876,1926.50383 1848.13472,1827.63876 Z" id="Path-18_12" stroke="url(#linearGradient-39)" opacity="0.24" transform="translate(1967.831871, 1165.509934) rotate(1.374315) translate(-1967.831871, -1165.509934) "></path>
            <path d="M1826.37813,1825.80118 C938.63071,1317.33714 736.544419,933.688892 1220.11926,674.856439 C1945.48151,286.607758 1727.53802,357.687936 2371.58563,828.064805 C3015.63323,1298.44167 3106.661,1723.70293 2609.28668,1848.75107 C2277.7038,1932.11649 2016.73428,1924.46653 1826.37813,1825.80118 Z" id="Path-18_11" stroke="url(#linearGradient-40)" opacity="0.22" transform="translate(1945.831871, 1165.009954) rotate(1.125626) translate(-1945.831871, -1165.009954) "></path>
            <path d="M1804.62154,1823.9636 C918.683082,1316.52881 717.00858,933.657161 1199.59804,675.348646 C1923.48223,287.885873 1705.98284,358.822168 2348.71807,828.246882 C2991.4533,1297.6716 3082.29558,1722.07202 2585.93476,1846.86704 C2255.02754,1930.06371 1994.5898,1922.42923 1804.62154,1823.9636 Z" id="Path-18_10" stroke="url(#linearGradient-41)" opacity="0.2" transform="translate(1923.831871, 1164.509974) rotate(0.901355) translate(-1923.831871, -1164.509974) "></path>
            <path d="M1782.86495,1822.12603 C898.735453,1315.72049 697.472742,933.62543 1179.07682,675.840853 C1901.48294,289.163987 1684.42765,359.956399 2325.85051,828.428959 C2967.27337,1296.90152 3057.93016,1720.44112 2562.58284,1844.983 C2232.35129,1928.01092 1972.44533,1920.39193 1782.86495,1822.12603 Z" id="Path-18_9" stroke="url(#linearGradient-42)" opacity="0.18" transform="translate(1901.831871, 1164.009995) rotate(0.701645) translate(-1901.831871, -1164.009995) "></path>
            <path d="M1761.10836,1820.28845 C878.787824,1314.91216 677.936904,933.593699 1158.5556,676.33306 C1879.48365,290.442101 1662.87247,361.09063 2302.98295,828.611036 C2943.09344,1296.13144 3033.56474,1718.81021 2539.23092,1843.09897 C2209.67503,1925.95814 1950.30085,1918.35463 1761.10836,1820.28845 Z" id="Path-18_8" stroke="url(#linearGradient-43)" opacity="0.16" transform="translate(1879.831871, 1163.510015) rotate(0.526622) translate(-1879.831871, -1163.510015) "></path>
            <path d="M1739.35177,1818.45087 C858.840195,1314.10384 658.401066,933.561969 1138.03439,676.825267 C1857.48437,291.720216 1641.31729,362.224862 2280.1154,828.793114 C2918.91351,1295.36137 3009.19932,1717.1793 2515.879,1841.21494 C2186.99878,1923.90536 1928.15637,1916.31733 1739.35177,1818.45087 Z" id="Path-18_7" stroke="url(#linearGradient-44)" opacity="0.14" transform="translate(1857.831871, 1163.010036) rotate(0.376396) translate(-1857.831871, -1163.010036) "></path>
            <path d="M1717.59518,1816.61329 C838.892566,1313.29551 638.865228,933.530238 1117.51317,677.317475 C1835.48508,292.99833 1619.7621,363.359093 2257.24784,828.975191 C2894.73357,1294.59129 2984.83391,1715.5484 2492.52708,1839.3309 C2164.32252,1921.85257 1906.01189,1914.28004 1717.59518,1816.61329 Z" id="Path-18_6" stroke="url(#linearGradient-45)" opacity="0.12" transform="translate(1835.831871, 1162.510057) rotate(0.251063) translate(-1835.831871, -1162.510057) "></path>
            <path d="M1695.83859,1814.77572 C818.944938,1312.48719 619.32939,933.498507 1096.99195,677.809682 C1813.4858,294.276445 1598.20692,364.493324 2234.38028,829.157268 C2870.55364,1293.82121 2960.46849,1713.91749 2469.17516,1837.44687 C2141.64627,1919.79979 1883.86741,1912.24274 1695.83859,1814.77572 Z" id="Path-18_5" stroke="url(#linearGradient-46)" opacity="0.1" transform="translate(1813.831871, 1162.010078) rotate(0.150701) translate(-1813.831871, -1162.010078) "></path>
            <path d="M1674.08201,1812.93814 C798.997309,1311.67886 599.793552,933.466776 1076.47073,678.301889 C1791.48651,295.554559 1576.65174,365.627555 2211.51272,829.339346 C2846.37371,1293.05114 2936.10307,1712.28659 2445.82324,1835.56284 C2118.97001,1917.747 1861.72294,1910.20544 1674.08201,1812.93814 Z" id="Path-18_4" stroke="url(#linearGradient-47)" opacity="0.08" transform="translate(1791.831871, 1161.510098) rotate(0.075374) translate(-1791.831871, -1161.510098) "></path>
            <path d="M1652.32542,1811.10056 C779.04968,1310.87053 580.257714,933.435046 1055.94952,678.794097 C1769.48722,296.832673 1555.09655,366.761787 2188.64517,829.521423 C2822.19378,1292.28106 2911.73765,1710.65568 2422.47132,1833.6788 C2096.29376,1915.69422 1839.57846,1908.16814 1652.32542,1811.10056 Z" id="Path-18_3" stroke="url(#linearGradient-48)" opacity="0.06" transform="translate(1769.831871, 1161.010119) rotate(0.025130) translate(-1769.831871, -1161.010119) "></path>
            <path d="M1630.56883,1809.51913 C759.102051,1310.22545 560.721876,933.496448 1035.4283,679.332142 C1747.48794,298.085683 1533.54137,367.883901 2165.77761,829.777334 C2798.01385,1291.67077 2887.37223,1709.26227 2399.1194,1832.05511 C2073.6175,1913.91701 1817.43398,1906.40501 1630.56883,1809.51913 Z" id="Path-18_2" stroke="url(#linearGradient-49)" opacity="0.04"></path>
            <path d="M844.904714,1808.90333 C-25.1900998,1310.19573 -223.257963,933.90895 250.701125,680.04299 C961.639758,299.244049 748.030011,368.960336 1379.27091,830.311584 C2010.51181,1291.66283 2099.72952,1708.76415 1612.24534,1831.41286 C1287.2559,1913.17866 1031.47569,1905.67549 844.904714,1808.90333 Z" id="Path-18_1" stroke="url(#linearGradient-50)" opacity="0.02"></path>
        </g>
    </g>
</svg>